<?xml version="1.0" encoding="utf-8"?>
<!-- Generator: Adobe Illustrator 13.0.2, SVG Export Plug-In . SVG Version: 6.00 Build 14948)  -->
<!DOCTYPE svg PUBLIC "-//W3C//DTD SVG 1.1//EN" "http://www.w3.org/Graphics/SVG/1.1/DTD/svg11.dtd">
<svg version="1.1" id="Ebene_1" xmlns="http://www.w3.org/2000/svg" xmlns:xlink="http://www.w3.org/1999/xlink" x="0px" y="0px"
	 width="56.692px" height="56.689px" viewBox="0 0 56.692 56.689" enable-background="new 0 0 56.692 56.689" xml:space="preserve">
<g>
	<g>
		<g>
			<path fill="#F15A24" stroke="#F15A24" stroke-width="0.25" d="M28.346,2.834c-14.067,0-25.511,11.443-25.511,25.512
				c0,14.066,11.444,25.512,25.511,25.512c14.066,0,25.512-11.445,25.512-25.512C53.858,14.277,42.413,2.834,28.346,2.834z
				 M28.346,49.674c-11.762,0-21.33-9.566-21.33-21.328s9.568-21.33,21.33-21.33s21.328,9.568,21.328,21.33
				S40.108,49.674,28.346,49.674z"/>
			<path fill="#F15A24" stroke="#F15A24" stroke-width="0.25" d="M31.303,28.346l7.215-7.216c0.816-0.817,0.816-2.141,0-2.957
				c-0.816-0.817-2.141-0.816-2.957,0l-7.215,7.215l-7.215-7.216c-0.817-0.816-2.141-0.816-2.958,0
				c-0.816,0.817-0.816,2.141,0,2.958l7.216,7.216l-7.216,7.215c-0.816,0.816-0.816,2.141,0,2.957
				c0.408,0.408,0.942,0.613,1.478,0.613c0.536,0,1.072-0.205,1.48-0.613l7.215-7.215l7.215,7.215
				c0.408,0.408,0.943,0.613,1.479,0.613s1.07-0.205,1.479-0.613c0.816-0.816,0.816-2.141,0-2.957L31.303,28.346z"/>
		</g>
	</g>
</g>
</svg>
