<?xml version="1.0" encoding="utf-8"?>
<!-- Generator: Adobe Illustrator 13.0.2, SVG Export Plug-In . SVG Version: 6.00 Build 14948)  -->
<!DOCTYPE svg PUBLIC "-//W3C//DTD SVG 1.1//EN" "http://www.w3.org/Graphics/SVG/1.1/DTD/svg11.dtd">
<svg version="1.1" id="Ebene_1" xmlns="http://www.w3.org/2000/svg" xmlns:xlink="http://www.w3.org/1999/xlink" x="0px" y="0px"
	 width="56.691px" height="56.694px" viewBox="0 0 56.691 56.694" enable-background="new 0 0 56.691 56.694" xml:space="preserve">
<g>
	<g>
		<path fill="#39B54A" stroke="#39B54A" d="M53.857,28.346c0-14.066-11.444-25.512-25.512-25.512
			c-14.068,0-25.512,11.445-25.512,25.512c0,14.068,11.443,25.512,25.512,25.512C42.413,53.858,53.857,42.415,53.857,28.346z
			 M50.365,28.346c0,12.143-9.877,22.02-22.02,22.021C16.203,50.366,6.324,40.489,6.324,28.346
			c0.002-12.141,9.879-22.02,22.021-22.02S50.365,16.206,50.365,28.346z"/>
		<path fill="#39B54A" stroke="#39B54A" d="M31.771,39.274c-0.682,0.682-1.787,0.682-2.469,0s-0.682-1.787,0-2.471l6.71-6.711
			H16.582c-0.965,0-1.746-0.781-1.746-1.746s0.781-1.746,1.746-1.746l19.432,0.002l-6.711-6.711c-0.682-0.683-0.682-1.789,0-2.471
			c0.34-0.34,0.787-0.511,1.234-0.511s0.893,0.171,1.234,0.511l9.692,9.692c0.327,0.327,0.511,0.771,0.511,1.235
			c0,0.463-0.184,0.906-0.511,1.234L31.771,39.274z"/>
	</g>
</g>
</svg>
